<svg xmlns="http://www.w3.org/2000/svg" viewBox="0 0 435.2 435.2"><g id="Слой_2" data-name="Слой 2"><g id="circle"><circle id="stroke" cx="217.6" cy="217.6" r="212.6" fill="#ff0" stroke="#000" stroke-miterlimit="10" stroke-width="10"/><path d="M98.18 288.07a51.31 51.31 0 01-19.65-16.42l20.77-14.93a23.65 23.65 0 0010.08 9.45 33.22 33.22 0 0015.3 3.36q14.81 0 22.95-9.2t8.15-25.88V111.18h25.37v123.4q0 18.78-6.59 32.09A45.71 45.71 0 01155.28 287q-12.69 7-30.6 7a60.09 60.09 0 01-26.5-5.93zm157.36 3.35a91.34 91.34 0 01-40.8-19.9l15.79-19.4a71.38 71.38 0 0022.77 13.43 79 79 0 0027 4.48q19.65 0 30.48-7.28t10.82-20.58V242q0-9.45-4.92-15a29.36 29.36 0 00-12.68-8.16 141.41 141.41 0 00-20.09-4.91 2.64 2.64 0 00-.81-.13 2.64 2.64 0 01-.81-.12l-1.86-.37a193.83 193.83 0 01-29.55-7A41.53 41.53 0 01231.41 192q-8.1-10.38-8.09-29.54v-.12q0-16.8 7.53-28.67t22-18.1q14.43-6.23 34.7-6.22a86.67 86.67 0 0119.1 2.11 95.28 95.28 0 0118.53 6.28 107.37 107.37 0 0118 10.51l-14.43 20.16A84.56 84.56 0 00308.09 137a59 59 0 00-20.59-3.79q-18.53 0-28.79 7.4t-10.26 21v.13q0 9.31 5.28 14.67a32 32 0 0013.19 7.9 197.37 197.37 0 0021.95 5.29 9.07 9.07 0 00.94.18c.29.05.6.11.93.19s.87.17 1.37.25.95.17 1.37.25a150.16 150.16 0 0127.42 8 42.73 42.73 0 0118.41 14.87q7.41 10.26 7.4 28v.25q0 16.54-7.83 28.3t-22.7 17.91q-14.87 6.17-35.89 6.16a118.55 118.55 0 01-24.75-2.54z"/></g></g></svg>