<svg xmlns="http://www.w3.org/2000/svg" viewBox="0 0 435.2 435.2"><defs><style>.cls-1{fill:#ff0;stroke:#000;stroke-miterlimit:10;stroke-width:10px;}</style></defs><g id="Слой_2" data-name="Слой 2"><g id="circle"><circle id="stroke" class="cls-1" cx="217.6" cy="217.6" r="212.6"/><path d="M98.18,288.07a51.31,51.31,0,0,1-19.65-16.42L99.3,256.72a23.65,23.65,0,0,0,10.08,9.45,33.22,33.22,0,0,0,15.3,3.36q14.81,0,22.95-9.2t8.15-25.88V111.18h25.37v123.4q0,18.78-6.59,32.09A45.71,45.71,0,0,1,155.28,287q-12.69,7-30.6,7A60.09,60.09,0,0,1,98.18,288.07Z"/><path d="M255.54,291.42a91.34,91.34,0,0,1-40.8-19.9l15.79-19.4a71.38,71.38,0,0,0,22.77,13.43,79,79,0,0,0,27,4.48q19.65,0,30.48-7.28t10.82-20.58V242q0-9.45-4.92-15A29.36,29.36,0,0,0,304,218.84a141.41,141.41,0,0,0-20.09-4.91,2.64,2.64,0,0,0-.81-.13,2.64,2.64,0,0,1-.81-.12l-1.86-.37a193.83,193.83,0,0,1-29.55-7A41.53,41.53,0,0,1,231.41,192q-8.1-10.38-8.09-29.54v-.12q0-16.8,7.53-28.67t22-18.1q14.43-6.23,34.7-6.22a86.67,86.67,0,0,1,19.1,2.11,95.28,95.28,0,0,1,18.53,6.28,107.37,107.37,0,0,1,18,10.51l-14.43,20.16A84.56,84.56,0,0,0,308.09,137a59,59,0,0,0-20.59-3.79q-18.53,0-28.79,7.4t-10.26,21v.13q0,9.31,5.28,14.67a32,32,0,0,0,13.19,7.9,197.37,197.37,0,0,0,21.95,5.29,9.07,9.07,0,0,0,.94.18c.29.05.6.11.93.19s.87.17,1.37.25.95.17,1.37.25a150.16,150.16,0,0,1,27.42,8,42.73,42.73,0,0,1,18.41,14.87q7.41,10.26,7.4,28v.25q0,16.54-7.83,28.3t-22.7,17.91q-14.87,6.17-35.89,6.16A118.55,118.55,0,0,1,255.54,291.42Z"/></g></g></svg>